<?xml version="1.0" standalone="no"?>
<!DOCTYPE svg PUBLIC "-//W3C//DTD SVG 20010904//EN"
 "http://www.w3.org/TR/2001/REC-SVG-20010904/DTD/svg10.dtd">
<svg version="1.0" xmlns="http://www.w3.org/2000/svg"
 width="967.000000pt" height="967.000000pt" viewBox="0 0 967.000000 967.000000"
 preserveAspectRatio="xMidYMid meet">
<metadata>
Created by potrace 1.11, written by Peter Selinger 2001-2013
</metadata>
<g transform="translate(0.000000,967.000000) scale(0.100000,-0.100000)"
fill="#000000" stroke="none">
<path d="M4838 8841 c-269 -269 -488 -493 -488 -498 0 -6 20 -13 44 -16 145
-20 262 -139 269 -274 l2 -48 -1165 -1 -1165 -2 0 -475 c0 -261 3 -473 6 -471
4 2 10 17 14 34 9 40 73 138 125 189 161 160 422 270 790 335 82 14 109 18
230 31 30 3 75 8 100 11 25 3 276 7 557 10 l513 5 0 -1164 c0 -927 -2 -1166
-12 -1169 -7 -2 -158 -4 -334 -3 l-322 0 -318 -635 c-175 -349 -324 -647 -331
-662 -10 -23 1 -17 65 35 145 119 290 200 425 237 86 24 283 35 268 16 -4 -6
-221 -290 -482 -631 -260 -341 -504 -660 -542 -710 -38 -49 -167 -218 -286
-373 -119 -156 -272 -357 -341 -445 l-125 -162 0 -332 c-1 -183 0 -333 1 -333
2 0 23 14 48 31 148 99 509 210 796 244 25 3 56 7 70 10 30 5 106 13 210 21
41 3 95 7 120 10 25 3 280 7 568 8 l523 4 -1 -197 c-2 -252 -20 -349 -112
-611 -41 -114 -174 -436 -189 -455 -4 -6 -13 -24 -19 -40 -7 -18 78 60 242
225 139 139 363 362 496 496 235 234 243 243 215 249 -139 28 -219 80 -263
170 -16 33 -31 83 -34 111 l-5 50 1161 0 c638 -1 1163 1 1167 4 5 4 11 990 5
990 -1 0 -14 -19 -29 -42 -48 -73 -195 -210 -300 -280 -139 -93 -368 -197
-515 -234 -81 -20 -184 -44 -207 -49 -15 -2 -39 -7 -53 -10 -25 -5 -58 -9
-145 -20 -27 -3 -68 -8 -90 -11 -22 -3 -254 -8 -516 -11 l-477 -5 2 1168 1
1169 332 0 332 0 161 323 c89 178 160 325 158 327 -2 2 -22 -14 -45 -35 -114
-109 -339 -234 -478 -266 -67 -15 -398 -24 -411 -11 -3 3 34 56 82 118 47 63
103 135 122 162 33 42 40 47 77 47 22 0 181 1 354 3 l314 2 153 305 c84 168
158 316 164 330 l12 25 -29 -25 c-15 -14 -30 -27 -33 -30 -20 -22 -142 -108
-205 -145 -72 -43 -181 -93 -214 -100 -9 -2 -36 -8 -60 -15 -48 -13 -231 -21
-231 -10 0 6 316 424 465 615 13 17 182 237 375 490 193 253 356 467 364 476
7 8 32 42 56 74 24 32 49 66 56 74 7 9 79 102 159 206 80 105 180 235 222 290
l77 100 1 325 c1 179 0 328 -2 332 -2 4 -24 -7 -48 -23 -118 -79 -407 -180
-615 -214 -19 -3 -42 -8 -50 -10 -8 -2 -31 -6 -50 -9 -104 -14 -137 -19 -153
-22 -10 -2 -55 -6 -100 -9 -45 -4 -89 -8 -97 -10 -43 -11 -335 -19 -750 -19
l-465 -1 -1 192 c-1 207 9 290 52 440 24 83 75 234 94 278 5 11 33 79 63 150
51 120 103 240 114 258 2 4 3 7 1 7 -2 -1 -222 -221 -490 -489z m1726 -1309
c-150 -195 -249 -325 -319 -417 -34 -44 -297 -388 -585 -765 -288 -377 -544
-712 -569 -745 -26 -33 -49 -62 -52 -65 -3 -3 -12 -16 -21 -29 -15 -21 -16 61
-16 1067 l0 1091 834 0 833 0 -105 -137z m-1976 -2585 c-24 -29 -81 -103 -128
-165 -83 -110 -85 -112 -125 -112 -333 -5 -655 -4 -655 1 0 13 107 102 192
159 105 71 216 124 312 150 57 15 107 19 259 19 l187 1 -42 -53z m82 -1857 l0
-1090 -831 0 c-524 0 -829 4 -827 10 3 10 55 78 348 460 96 125 236 308 310
406 74 97 140 182 145 188 6 6 46 58 89 116 159 211 231 305 241 316 6 7 125
163 265 347 140 185 256 336 258 337 1 0 2 -490 2 -1090z"/>
</g>
</svg>
